<?xml version="1.0" encoding="iso-8859-1"?>
<!-- Generator: Adobe Illustrator 19.0.0, SVG Export Plug-In . SVG Version: 6.00 Build 0)  -->
<svg version="1.1" id="Capa_1" xmlns="http://www.w3.org/2000/svg" xmlns:xlink="http://www.w3.org/1999/xlink" x="0px" y="0px"
	 viewBox="0 0 416 416" style="enable-background:new 0 0 416 416;" xml:space="preserve">
<g>
	<g>
		<path fill="rgb(255, 87, 34)" d="M340.715,135.776c-13.184-26.976-35.776-42.112-57.6-56.736c-16.32-10.912-31.712-21.216-42.56-35.936l-1.952-2.624
			c-6.432-8.64-13.696-18.432-14.848-26.656c-0.096-0.736-0.48-1.28-0.672-1.952c-0.288-1.088-0.576-2.112-1.088-3.072
			c-0.448-0.928-1.056-1.696-1.696-2.528c-0.608-0.768-1.216-1.536-1.952-2.176c-0.864-0.768-1.76-1.312-2.752-1.856
			c-0.768-0.448-1.536-0.864-2.4-1.184c-1.12-0.384-2.24-0.544-3.456-0.704C209.099,0.288,208.555,0,207.915,0
			c-0.384,0-0.704,0.192-1.056,0.224c-0.416,0.032-0.768-0.128-1.152-0.064c-0.704,0.096-1.248,0.48-1.92,0.672
			c-1.088,0.288-2.112,0.576-3.072,1.088c-0.896,0.448-1.664,1.024-2.432,1.632c-0.832,0.64-1.632,1.28-2.304,2.08
			c-0.672,0.768-1.152,1.568-1.664,2.464c-0.544,0.896-1.024,1.76-1.376,2.752c-0.32,0.992-0.48,2.016-0.608,3.072
			c-0.096,0.704-0.416,1.344-0.416,2.08v285.12c-13.408-8.128-29.92-13.12-48-13.12c-44.096,0-80,28.704-80,64
			c0,35.296,35.904,64,80,64s80-28.704,80-64V165.504c24.032,9.184,63.36,32.576,74.144,87.2c-2.016,2.976-3.936,6.176-6.176,8.736
			c-5.824,6.624-5.184,16.736,1.44,22.592c3.072,2.656,6.816,3.968,10.592,3.968c4.448,0,8.864-1.856,12-5.44
			c4.256-4.864,8.096-10.56,11.744-16.48c0.416-0.48,0.736-0.992,1.088-1.504c12.928-21.632,21.504-49.024,23.168-76.064
			C352.971,171.168,349.099,152.928,340.715,135.776z M143.915,384c-26.016,0-48-14.656-48-32s21.984-32,48-32s48,14.656,48,32
			S169.931,384,143.915,384z M319.947,186.56c-0.448,7.488-1.6,14.944-3.232,22.272c-22.464-45.152-63.296-68.672-92.8-77.376
			V72.704c12.544,13.376,27.104,23.36,41.376,32.928c19.168,12.832,37.28,24.96,46.656,44.16
			C317.803,161.824,320.651,174.88,319.947,186.56z"/>
	</g>
</g>
<g>
</g>
<g>
</g>
<g>
</g>
<g>
</g>
<g>
</g>
<g>
</g>
<g>
</g>
<g>
</g>
<g>
</g>
<g>
</g>
<g>
</g>
<g>
</g>
<g>
</g>
<g>
</g>
<g>
</g>
</svg>
